<svg width="32" height="32" viewBox="0 0 32 32" fill="none" xmlns="http://www.w3.org/2000/svg">
<path d="M16.0001 30C13.2311 30 10.5244 29.1789 8.2221 27.6406C5.91982 26.1022 4.1254 23.9157 3.06577 21.3576C2.00615 18.7994 1.7289 15.9845 2.26909 13.2687C2.80929 10.553 4.14265 8.05845 6.10059 6.10051C8.05852 4.14258 10.5531 2.80921 13.2688 2.26901C15.9846 1.72882 18.7995 2.00607 21.3577 3.06569C23.9158 4.12532 26.1023 5.91973 27.6407 8.22202C29.179 10.5243 30.0001 13.2311 30.0001 16C29.9959 19.7118 28.5196 23.2703 25.895 25.8949C23.2704 28.5195 19.7118 29.9958 16.0001 30ZM16.0001 4.00001C13.6267 4.00001 11.3066 4.70379 9.33324 6.02237C7.35985 7.34095 5.82178 9.21509 4.91353 11.4078C4.00528 13.6005 3.76764 16.0133 4.23066 18.3411C4.69369 20.6689 5.83657 22.8071 7.5148 24.4853C9.19304 26.1635 11.3312 27.3064 13.659 27.7694C15.9868 28.2325 18.3996 27.9948 20.5923 27.0866C22.785 26.1783 24.6591 24.6402 25.9777 22.6668C27.2963 20.6935 28.0001 18.3734 28.0001 16C27.9965 12.8185 26.731 9.76838 24.4814 7.51873C22.2317 5.26908 19.1816 4.00363 16.0001 4.00001Z" fill="currentColor"/>
<path d="M20 11V9H12V23H14V17H19V15H14V11H20Z" fill="currentColor"/>
</svg>
