<svg width="32" height="32" viewBox="0 0 32 32" fill="none" xmlns="http://www.w3.org/2000/svg">
<path d="M15.0002 9.7778H17.0002L16.0002 7.63483L15.0002 9.7778Z" fill="currentColor"/>
<path fill-rule="evenodd" clip-rule="evenodd" d="M10.5702 24L11.5035 22L12.4371 20L13.3702 18L14.3037 16L16.0002 12.3647L17.6967 16L18.6302 18L19.5635 20L20.4963 22L21.4296 24H23.6368L17.0002 9.7778H15.0002L8.36328 24H10.5702Z" fill="currentColor"/>
<path d="M16 26C17.1046 26 18 25.1046 18 24C18 22.8954 17.1046 22 16 22C14.8954 22 14 22.8954 14 24C14 25.1046 14.8954 26 16 26Z" fill="currentColor"/>
</svg>
