<svg width="32" height="32" viewBox="0 0 32 32" fill="none" xmlns="http://www.w3.org/2000/svg">
<path fill-rule="evenodd" clip-rule="evenodd" d="M11.5035 22L10.5702 24H8.36328L15.0002 9.7778V5H17.0002V9.7778L23.6368 24H21.4296L20.4963 22L19.5635 20L18.6302 18H13.3702L12.4371 20L11.5035 22ZM17.6967 16L16.0002 12.3647L14.3037 16H17.6967Z" fill="currentColor"/>
<path d="M16.0002 12.3647L17.6967 16H14.3037L16.0002 12.3647Z" fill="currentColor"/>
<path d="M16 26C17.1046 26 18 25.1046 18 24C18 22.8954 17.1046 22 16 22C14.8954 22 14 22.8954 14 24C14 25.1046 14.8954 26 16 26Z" fill="currentColor"/>
</svg>
