<svg width="32" height="32" viewBox="0 0 32 32" fill="none" xmlns="http://www.w3.org/2000/svg">
<path d="M15.0002 15.7778H17.0002L16.0002 13.6348L15.0002 15.7778Z" fill="currentColor"/>
<path fill-rule="evenodd" clip-rule="evenodd" d="M10.5702 30L11.5035 28L12.4371 26L13.3702 24L14.3037 22L16.0002 18.3647L17.6967 22L18.6302 24L19.5635 26L20.4963 28L21.4296 30H23.6368L17.0002 15.7778H15.0002L8.36328 30H10.5702Z" fill="currentColor"/>
<path d="M16 14C17.1046 14 18 13.1046 18 12C18 10.8954 17.1046 10 16 10C14.8954 10 14 10.8954 14 12C14 13.1046 14.8954 14 16 14Z" fill="currentColor"/>
<path d="M17 0H15V5H17V0Z" fill="currentColor"/>
<path d="M23.1924 3.39353L19.6866 6.89937L21.1007 8.31344L24.6065 4.80761L23.1924 3.39353Z" fill="currentColor"/>
<path d="M28 11H23V13H28V11Z" fill="currentColor"/>
<path d="M21.1007 15.6866L19.6866 17.1007L23.1924 20.6065L24.6065 19.1924L21.1007 15.6866Z" fill="currentColor"/>
<path d="M10.8994 15.6865L7.39357 19.1924L8.80764 20.6064L12.3135 17.1006L10.8994 15.6865Z" fill="currentColor"/>
<path d="M9 11H4V13H9V11Z" fill="currentColor"/>
<path d="M8.80766 3.39355L7.39359 4.80762L10.8994 8.31346L12.3135 6.89938L8.80766 3.39355Z" fill="currentColor"/>
</svg>
